<mxfile host="app.diagrams.net" modified="2023-09-15T02:43:09.148Z" agent="Mozilla/5.0 (Windows NT 10.0; Win64; x64) AppleWebKit/537.36 (KHTML, like Gecko) Chrome/116.0.0.0 Safari/537.36" etag="ukiuU33vFNMGIJ3cSgqW" version="21.7.5" type="device">
  <diagram id="R2lEEEUBdFMjLlhIrx00" name="Page-1">
    <mxGraphModel dx="2225" dy="1755" grid="1" gridSize="10" guides="1" tooltips="1" connect="1" arrows="1" fold="1" page="1" pageScale="1" pageWidth="850" pageHeight="1100" background="none" math="0" shadow="0" extFonts="Permanent Marker^https://fonts.googleapis.com/css?family=Permanent+Marker">
      <root>
        <mxCell id="0" />
        <mxCell id="1" parent="0" />
        <mxCell id="u0Waulj6cbrL7kYw__7z-2" value="&lt;font style=&quot;font-size: 18px;&quot;&gt;produto&lt;/font&gt;" style="rounded=0;whiteSpace=wrap;html=1;" parent="1" vertex="1">
          <mxGeometry x="-450" y="-1000" width="120" height="60" as="geometry" />
        </mxCell>
        <mxCell id="M-Kk_DBBXMK0dHsBA82f-29" style="edgeStyle=orthogonalEdgeStyle;rounded=0;orthogonalLoop=1;jettySize=auto;html=1;entryX=0.083;entryY=1;entryDx=0;entryDy=0;entryPerimeter=0;endArrow=none;endFill=0;" edge="1" parent="1" source="u0Waulj6cbrL7kYw__7z-3" target="u0Waulj6cbrL7kYw__7z-2">
          <mxGeometry relative="1" as="geometry">
            <Array as="points">
              <mxPoint x="-460" y="-940" />
            </Array>
          </mxGeometry>
        </mxCell>
        <mxCell id="u0Waulj6cbrL7kYw__7z-3" value="&lt;span style=&quot;font-weight: normal;&quot;&gt;nome_produto&lt;/span&gt;" style="ellipse;whiteSpace=wrap;html=1;fontStyle=1" parent="1" vertex="1">
          <mxGeometry x="-560" y="-910" width="100" height="40" as="geometry" />
        </mxCell>
        <mxCell id="M-Kk_DBBXMK0dHsBA82f-142" style="edgeStyle=orthogonalEdgeStyle;rounded=0;orthogonalLoop=1;jettySize=auto;html=1;entryX=0.25;entryY=1;entryDx=0;entryDy=0;endArrow=none;endFill=0;" edge="1" parent="1" source="u0Waulj6cbrL7kYw__7z-4" target="u0Waulj6cbrL7kYw__7z-2">
          <mxGeometry relative="1" as="geometry" />
        </mxCell>
        <mxCell id="u0Waulj6cbrL7kYw__7z-4" value="&lt;u&gt;codigo&lt;/u&gt;" style="ellipse;whiteSpace=wrap;html=1;" parent="1" vertex="1">
          <mxGeometry x="-485" y="-850" width="80" height="40" as="geometry" />
        </mxCell>
        <mxCell id="u0Waulj6cbrL7kYw__7z-5" value="descricao" style="ellipse;whiteSpace=wrap;html=1;" parent="1" vertex="1">
          <mxGeometry x="-350" y="-910" width="80" height="40" as="geometry" />
        </mxCell>
        <mxCell id="M-Kk_DBBXMK0dHsBA82f-87" value="" style="edgeStyle=orthogonalEdgeStyle;rounded=0;orthogonalLoop=1;jettySize=auto;html=1;endArrow=none;endFill=0;" edge="1" parent="1" source="u0Waulj6cbrL7kYw__7z-6" target="u0Waulj6cbrL7kYw__7z-2">
          <mxGeometry relative="1" as="geometry" />
        </mxCell>
        <mxCell id="u0Waulj6cbrL7kYw__7z-6" value="&lt;span style=&quot;font-weight: normal;&quot;&gt;categoria&lt;/span&gt;" style="ellipse;whiteSpace=wrap;html=1;fontStyle=1" parent="1" vertex="1">
          <mxGeometry x="-575" y="-970" width="80" height="40" as="geometry" />
        </mxCell>
        <mxCell id="u0Waulj6cbrL7kYw__7z-7" value="&lt;span style=&quot;font-weight: normal;&quot;&gt;preco&lt;/span&gt;" style="ellipse;whiteSpace=wrap;html=1;fontStyle=1" parent="1" vertex="1">
          <mxGeometry x="-550" y="-1020" width="80" height="40" as="geometry" />
        </mxCell>
        <mxCell id="M-Kk_DBBXMK0dHsBA82f-26" style="edgeStyle=orthogonalEdgeStyle;rounded=0;orthogonalLoop=1;jettySize=auto;html=1;entryX=0.25;entryY=0;entryDx=0;entryDy=0;endArrow=none;endFill=0;" edge="1" parent="1" source="u0Waulj6cbrL7kYw__7z-8" target="u0Waulj6cbrL7kYw__7z-2">
          <mxGeometry relative="1" as="geometry" />
        </mxCell>
        <mxCell id="u0Waulj6cbrL7kYw__7z-8" value="&lt;span style=&quot;font-weight: normal;&quot;&gt;estoque&lt;/span&gt;" style="ellipse;whiteSpace=wrap;html=1;fontStyle=1" parent="1" vertex="1">
          <mxGeometry x="-480" y="-1070" width="80" height="40" as="geometry" />
        </mxCell>
        <mxCell id="u0Waulj6cbrL7kYw__7z-9" value="" style="endArrow=none;html=1;rounded=0;entryX=0.75;entryY=1;entryDx=0;entryDy=0;" parent="1" target="u0Waulj6cbrL7kYw__7z-2" edge="1">
          <mxGeometry width="50" height="50" relative="1" as="geometry">
            <mxPoint x="-320" y="-910" as="sourcePoint" />
            <mxPoint x="-270" y="-960" as="targetPoint" />
            <Array as="points">
              <mxPoint x="-320" y="-920" />
              <mxPoint x="-360" y="-920" />
            </Array>
          </mxGeometry>
        </mxCell>
        <mxCell id="u0Waulj6cbrL7kYw__7z-13" value="" style="endArrow=none;html=1;rounded=0;exitX=1;exitY=0.5;exitDx=0;exitDy=0;" parent="1" source="u0Waulj6cbrL7kYw__7z-7" edge="1">
          <mxGeometry width="50" height="50" relative="1" as="geometry">
            <mxPoint x="-460" y="-960" as="sourcePoint" />
            <mxPoint x="-450" y="-980" as="targetPoint" />
            <Array as="points">
              <mxPoint x="-470" y="-980" />
            </Array>
          </mxGeometry>
        </mxCell>
        <mxCell id="u0Waulj6cbrL7kYw__7z-16" value="&lt;font style=&quot;font-size: 18px;&quot;&gt;cliente&lt;br&gt;&lt;/font&gt;" style="rounded=0;whiteSpace=wrap;html=1;" parent="1" vertex="1">
          <mxGeometry x="120" y="-500" width="90" height="40" as="geometry" />
        </mxCell>
        <mxCell id="M-Kk_DBBXMK0dHsBA82f-81" value="" style="edgeStyle=orthogonalEdgeStyle;rounded=0;orthogonalLoop=1;jettySize=auto;html=1;endArrow=none;endFill=0;" edge="1" parent="1" source="u0Waulj6cbrL7kYw__7z-17" target="u0Waulj6cbrL7kYw__7z-16">
          <mxGeometry relative="1" as="geometry" />
        </mxCell>
        <mxCell id="u0Waulj6cbrL7kYw__7z-17" value="&lt;span style=&quot;font-weight: normal;&quot;&gt;nome&lt;/span&gt;" style="ellipse;whiteSpace=wrap;html=1;fontStyle=1" parent="1" vertex="1">
          <mxGeometry x="125" y="-420" width="80" height="40" as="geometry" />
        </mxCell>
        <mxCell id="M-Kk_DBBXMK0dHsBA82f-85" style="edgeStyle=orthogonalEdgeStyle;rounded=0;orthogonalLoop=1;jettySize=auto;html=1;entryX=0.911;entryY=0.998;entryDx=0;entryDy=0;entryPerimeter=0;endArrow=none;endFill=0;" edge="1" parent="1" source="u0Waulj6cbrL7kYw__7z-18" target="u0Waulj6cbrL7kYw__7z-16">
          <mxGeometry relative="1" as="geometry" />
        </mxCell>
        <mxCell id="u0Waulj6cbrL7kYw__7z-18" value="&lt;u&gt;cpf&lt;/u&gt;" style="ellipse;whiteSpace=wrap;html=1;" parent="1" vertex="1">
          <mxGeometry x="230" y="-450" width="80" height="40" as="geometry" />
        </mxCell>
        <mxCell id="M-Kk_DBBXMK0dHsBA82f-94" style="edgeStyle=orthogonalEdgeStyle;rounded=0;orthogonalLoop=1;jettySize=auto;html=1;entryX=1;entryY=0.75;entryDx=0;entryDy=0;endArrow=none;endFill=0;" edge="1" parent="1" source="u0Waulj6cbrL7kYw__7z-20" target="u0Waulj6cbrL7kYw__7z-16">
          <mxGeometry relative="1" as="geometry">
            <Array as="points">
              <mxPoint x="235" y="-485" />
              <mxPoint x="235" y="-470" />
            </Array>
          </mxGeometry>
        </mxCell>
        <mxCell id="u0Waulj6cbrL7kYw__7z-20" value="&lt;span style=&quot;font-weight: normal;&quot;&gt;telefone&lt;/span&gt;" style="ellipse;whiteSpace=wrap;html=1;fontStyle=1" parent="1" vertex="1">
          <mxGeometry x="280" y="-500" width="80" height="40" as="geometry" />
        </mxCell>
        <mxCell id="M-Kk_DBBXMK0dHsBA82f-93" style="edgeStyle=orthogonalEdgeStyle;rounded=0;orthogonalLoop=1;jettySize=auto;html=1;entryX=1;entryY=0.25;entryDx=0;entryDy=0;endArrow=none;endFill=0;" edge="1" parent="1" source="u0Waulj6cbrL7kYw__7z-21" target="u0Waulj6cbrL7kYw__7z-16">
          <mxGeometry relative="1" as="geometry" />
        </mxCell>
        <mxCell id="u0Waulj6cbrL7kYw__7z-21" value="&lt;span style=&quot;font-weight: normal;&quot;&gt;email&lt;/span&gt;" style="ellipse;whiteSpace=wrap;html=1;fontStyle=1" parent="1" vertex="1">
          <mxGeometry x="190" y="-590" width="80" height="40" as="geometry" />
        </mxCell>
        <mxCell id="u0Waulj6cbrL7kYw__7z-29" value="&lt;font style=&quot;font-size: 18px;&quot;&gt;fornecedor&lt;/font&gt;" style="rounded=0;whiteSpace=wrap;html=1;" parent="1" vertex="1">
          <mxGeometry x="-420" y="-480" width="120" height="60" as="geometry" />
        </mxCell>
        <mxCell id="M-Kk_DBBXMK0dHsBA82f-37" style="edgeStyle=orthogonalEdgeStyle;rounded=0;orthogonalLoop=1;jettySize=auto;html=1;entryX=0.386;entryY=1.034;entryDx=0;entryDy=0;entryPerimeter=0;endArrow=none;endFill=0;" edge="1" parent="1" source="u0Waulj6cbrL7kYw__7z-30" target="u0Waulj6cbrL7kYw__7z-29">
          <mxGeometry relative="1" as="geometry">
            <mxPoint x="-375" y="-410" as="targetPoint" />
            <Array as="points">
              <mxPoint x="-465" y="-400" />
              <mxPoint x="-374" y="-400" />
            </Array>
          </mxGeometry>
        </mxCell>
        <mxCell id="u0Waulj6cbrL7kYw__7z-30" value="&lt;span style=&quot;font-weight: normal;&quot;&gt;&lt;font style=&quot;font-size: 11px;&quot;&gt;&lt;u&gt;nome_representante&lt;/u&gt;&lt;/font&gt;&lt;/span&gt;" style="ellipse;whiteSpace=wrap;html=1;fontStyle=1" parent="1" vertex="1">
          <mxGeometry x="-485" y="-390" width="120" height="40" as="geometry" />
        </mxCell>
        <mxCell id="M-Kk_DBBXMK0dHsBA82f-38" style="edgeStyle=orthogonalEdgeStyle;rounded=0;orthogonalLoop=1;jettySize=auto;html=1;entryX=0.75;entryY=1;entryDx=0;entryDy=0;endArrow=none;endFill=0;" edge="1" parent="1" source="u0Waulj6cbrL7kYw__7z-32" target="u0Waulj6cbrL7kYw__7z-29">
          <mxGeometry relative="1" as="geometry" />
        </mxCell>
        <mxCell id="u0Waulj6cbrL7kYw__7z-32" value="nome_empresa" style="ellipse;whiteSpace=wrap;html=1;" parent="1" vertex="1">
          <mxGeometry x="-350" y="-390" width="100" height="40" as="geometry" />
        </mxCell>
        <mxCell id="M-Kk_DBBXMK0dHsBA82f-35" style="edgeStyle=orthogonalEdgeStyle;rounded=0;orthogonalLoop=1;jettySize=auto;html=1;entryX=0.208;entryY=1;entryDx=0;entryDy=0;entryPerimeter=0;endArrow=none;endFill=0;" edge="1" parent="1" source="u0Waulj6cbrL7kYw__7z-33" target="u0Waulj6cbrL7kYw__7z-29">
          <mxGeometry relative="1" as="geometry">
            <Array as="points">
              <mxPoint x="-395" y="-410" />
            </Array>
          </mxGeometry>
        </mxCell>
        <mxCell id="u0Waulj6cbrL7kYw__7z-33" value="&lt;span style=&quot;font-weight: 400;&quot;&gt;telefone&lt;/span&gt;" style="ellipse;whiteSpace=wrap;html=1;fontStyle=1" parent="1" vertex="1">
          <mxGeometry x="-575" y="-430" width="80" height="40" as="geometry" />
        </mxCell>
        <mxCell id="M-Kk_DBBXMK0dHsBA82f-33" style="edgeStyle=orthogonalEdgeStyle;rounded=0;orthogonalLoop=1;jettySize=auto;html=1;entryX=0.001;entryY=0.668;entryDx=0;entryDy=0;entryPerimeter=0;endArrow=none;endFill=0;" edge="1" parent="1" source="u0Waulj6cbrL7kYw__7z-34" target="u0Waulj6cbrL7kYw__7z-29">
          <mxGeometry relative="1" as="geometry">
            <mxPoint x="-425" y="-440" as="targetPoint" />
            <Array as="points">
              <mxPoint x="-502" y="-440" />
            </Array>
          </mxGeometry>
        </mxCell>
        <mxCell id="u0Waulj6cbrL7kYw__7z-34" value="&lt;span style=&quot;font-weight: normal;&quot;&gt;produtos_fornecidos&lt;/span&gt;" style="ellipse;whiteSpace=wrap;html=1;fontStyle=1" parent="1" vertex="1">
          <mxGeometry x="-565" y="-500" width="125" height="40" as="geometry" />
        </mxCell>
        <mxCell id="M-Kk_DBBXMK0dHsBA82f-30" style="edgeStyle=orthogonalEdgeStyle;rounded=0;orthogonalLoop=1;jettySize=auto;html=1;entryX=0.5;entryY=0;entryDx=0;entryDy=0;endArrow=none;endFill=0;" edge="1" parent="1" source="u0Waulj6cbrL7kYw__7z-35" target="u0Waulj6cbrL7kYw__7z-29">
          <mxGeometry relative="1" as="geometry" />
        </mxCell>
        <mxCell id="u0Waulj6cbrL7kYw__7z-35" value="&lt;span style=&quot;font-weight: normal;&quot;&gt;condicoes_estoque&lt;br&gt;&lt;/span&gt;" style="ellipse;whiteSpace=wrap;html=1;fontStyle=1" parent="1" vertex="1">
          <mxGeometry x="-470" y="-560" width="125" height="40" as="geometry" />
        </mxCell>
        <mxCell id="M-Kk_DBBXMK0dHsBA82f-1" value="&lt;font style=&quot;font-size: 18px;&quot;&gt;compra&lt;/font&gt;" style="rounded=0;whiteSpace=wrap;html=1;" vertex="1" parent="1">
          <mxGeometry x="210" y="-990" width="120" height="60" as="geometry" />
        </mxCell>
        <mxCell id="M-Kk_DBBXMK0dHsBA82f-48" style="edgeStyle=orthogonalEdgeStyle;rounded=0;orthogonalLoop=1;jettySize=auto;html=1;entryX=0.899;entryY=1;entryDx=0;entryDy=0;entryPerimeter=0;endArrow=none;endFill=0;" edge="1" parent="1" source="M-Kk_DBBXMK0dHsBA82f-4" target="M-Kk_DBBXMK0dHsBA82f-1">
          <mxGeometry relative="1" as="geometry" />
        </mxCell>
        <mxCell id="M-Kk_DBBXMK0dHsBA82f-4" value="forma_pagamento" style="ellipse;whiteSpace=wrap;html=1;" vertex="1" parent="1">
          <mxGeometry x="350" y="-930" width="120" height="40" as="geometry" />
        </mxCell>
        <mxCell id="M-Kk_DBBXMK0dHsBA82f-49" style="edgeStyle=orthogonalEdgeStyle;rounded=0;orthogonalLoop=1;jettySize=auto;html=1;entryX=1;entryY=0.5;entryDx=0;entryDy=0;endArrow=none;endFill=0;" edge="1" parent="1" source="M-Kk_DBBXMK0dHsBA82f-5" target="M-Kk_DBBXMK0dHsBA82f-1">
          <mxGeometry relative="1" as="geometry" />
        </mxCell>
        <mxCell id="M-Kk_DBBXMK0dHsBA82f-5" value="&lt;span style=&quot;font-weight: normal;&quot;&gt;valor&lt;/span&gt;" style="ellipse;whiteSpace=wrap;html=1;fontStyle=1" vertex="1" parent="1">
          <mxGeometry x="360" y="-1010" width="80" height="40" as="geometry" />
        </mxCell>
        <mxCell id="M-Kk_DBBXMK0dHsBA82f-51" style="edgeStyle=orthogonalEdgeStyle;rounded=0;orthogonalLoop=1;jettySize=auto;html=1;entryX=0.939;entryY=-0.004;entryDx=0;entryDy=0;entryPerimeter=0;endArrow=none;endFill=0;" edge="1" parent="1" source="M-Kk_DBBXMK0dHsBA82f-6" target="M-Kk_DBBXMK0dHsBA82f-1">
          <mxGeometry relative="1" as="geometry" />
        </mxCell>
        <mxCell id="M-Kk_DBBXMK0dHsBA82f-6" value="&lt;span style=&quot;font-weight: normal;&quot;&gt;data&lt;/span&gt;" style="ellipse;whiteSpace=wrap;html=1;fontStyle=1" vertex="1" parent="1">
          <mxGeometry x="345" y="-1070" width="80" height="40" as="geometry" />
        </mxCell>
        <mxCell id="M-Kk_DBBXMK0dHsBA82f-86" style="edgeStyle=orthogonalEdgeStyle;rounded=0;orthogonalLoop=1;jettySize=auto;html=1;entryX=0.75;entryY=0;entryDx=0;entryDy=0;endArrow=none;endFill=0;" edge="1" parent="1" source="M-Kk_DBBXMK0dHsBA82f-12" target="u0Waulj6cbrL7kYw__7z-16">
          <mxGeometry relative="1" as="geometry" />
        </mxCell>
        <mxCell id="M-Kk_DBBXMK0dHsBA82f-12" value="&lt;span style=&quot;font-weight: normal;&quot;&gt;&lt;u&gt;id&lt;/u&gt;&lt;/span&gt;" style="ellipse;whiteSpace=wrap;html=1;fontStyle=1" vertex="1" parent="1">
          <mxGeometry x="70" y="-580" width="80" height="40" as="geometry" />
        </mxCell>
        <mxCell id="M-Kk_DBBXMK0dHsBA82f-28" style="edgeStyle=orthogonalEdgeStyle;rounded=0;orthogonalLoop=1;jettySize=auto;html=1;entryX=0.639;entryY=0.017;entryDx=0;entryDy=0;entryPerimeter=0;endArrow=none;endFill=0;" edge="1" parent="1" source="M-Kk_DBBXMK0dHsBA82f-15" target="u0Waulj6cbrL7kYw__7z-2">
          <mxGeometry relative="1" as="geometry">
            <Array as="points">
              <mxPoint x="-335" y="-1010" />
              <mxPoint x="-373" y="-1010" />
            </Array>
          </mxGeometry>
        </mxCell>
        <mxCell id="M-Kk_DBBXMK0dHsBA82f-15" value="&lt;span style=&quot;font-weight: normal;&quot;&gt;&lt;u&gt;id&lt;/u&gt;&lt;/span&gt;" style="ellipse;whiteSpace=wrap;html=1;fontStyle=1" vertex="1" parent="1">
          <mxGeometry x="-310" y="-1060" width="80" height="40" as="geometry" />
        </mxCell>
        <mxCell id="M-Kk_DBBXMK0dHsBA82f-19" value="&lt;span style=&quot;font-weight: 400;&quot;&gt;&lt;u&gt;id&lt;/u&gt;&lt;/span&gt;" style="ellipse;whiteSpace=wrap;html=1;fontStyle=1" vertex="1" parent="1">
          <mxGeometry x="230" y="-1070" width="80" height="40" as="geometry" />
        </mxCell>
        <mxCell id="M-Kk_DBBXMK0dHsBA82f-41" style="edgeStyle=orthogonalEdgeStyle;rounded=0;orthogonalLoop=1;jettySize=auto;html=1;endArrow=ERmany;endFill=0;" edge="1" parent="1" source="M-Kk_DBBXMK0dHsBA82f-22">
          <mxGeometry relative="1" as="geometry">
            <mxPoint x="210" y="-940" as="targetPoint" />
            <Array as="points">
              <mxPoint x="160" y="-940" />
              <mxPoint x="210" y="-940" />
            </Array>
          </mxGeometry>
        </mxCell>
        <mxCell id="M-Kk_DBBXMK0dHsBA82f-42" style="edgeStyle=orthogonalEdgeStyle;rounded=0;orthogonalLoop=1;jettySize=auto;html=1;entryX=0;entryY=0.5;entryDx=0;entryDy=0;endArrow=none;endFill=0;startArrow=none;startFill=0;" edge="1" parent="1" source="M-Kk_DBBXMK0dHsBA82f-22" target="u0Waulj6cbrL7kYw__7z-16">
          <mxGeometry relative="1" as="geometry">
            <Array as="points">
              <mxPoint x="160" y="-625" />
              <mxPoint x="40" y="-625" />
              <mxPoint x="40" y="-490" />
            </Array>
          </mxGeometry>
        </mxCell>
        <mxCell id="M-Kk_DBBXMK0dHsBA82f-22" value="cliente_compra" style="shape=rhombus;perimeter=rhombusPerimeter;whiteSpace=wrap;html=1;align=center;" vertex="1" parent="1">
          <mxGeometry x="100" y="-790" width="120" height="60" as="geometry" />
        </mxCell>
        <mxCell id="M-Kk_DBBXMK0dHsBA82f-40" style="edgeStyle=orthogonalEdgeStyle;rounded=0;orthogonalLoop=1;jettySize=auto;html=1;entryX=1;entryY=0.5;entryDx=0;entryDy=0;endArrow=none;endFill=0;" edge="1" parent="1" source="M-Kk_DBBXMK0dHsBA82f-39" target="u0Waulj6cbrL7kYw__7z-29">
          <mxGeometry relative="1" as="geometry" />
        </mxCell>
        <mxCell id="M-Kk_DBBXMK0dHsBA82f-39" value="id" style="ellipse;whiteSpace=wrap;html=1;align=center;fontStyle=4;" vertex="1" parent="1">
          <mxGeometry x="-305" y="-550" width="100" height="40" as="geometry" />
        </mxCell>
        <mxCell id="M-Kk_DBBXMK0dHsBA82f-46" style="edgeStyle=orthogonalEdgeStyle;rounded=0;orthogonalLoop=1;jettySize=auto;html=1;exitX=0;exitY=0.5;exitDx=0;exitDy=0;entryX=1;entryY=0.5;entryDx=0;entryDy=0;endArrow=none;endFill=0;" edge="1" parent="1" source="M-Kk_DBBXMK0dHsBA82f-44" target="M-Kk_DBBXMK0dHsBA82f-22">
          <mxGeometry relative="1" as="geometry">
            <Array as="points">
              <mxPoint x="240" y="-790" />
              <mxPoint x="240" y="-760" />
            </Array>
          </mxGeometry>
        </mxCell>
        <mxCell id="M-Kk_DBBXMK0dHsBA82f-44" value="id_cliente" style="ellipse;whiteSpace=wrap;html=1;align=center;" vertex="1" parent="1">
          <mxGeometry x="270" y="-810" width="100" height="40" as="geometry" />
        </mxCell>
        <mxCell id="M-Kk_DBBXMK0dHsBA82f-47" style="edgeStyle=orthogonalEdgeStyle;rounded=0;orthogonalLoop=1;jettySize=auto;html=1;endArrow=none;endFill=0;" edge="1" parent="1" source="M-Kk_DBBXMK0dHsBA82f-45">
          <mxGeometry relative="1" as="geometry">
            <mxPoint x="220" y="-760" as="targetPoint" />
            <Array as="points">
              <mxPoint x="240" y="-730" />
              <mxPoint x="240" y="-760" />
            </Array>
          </mxGeometry>
        </mxCell>
        <mxCell id="M-Kk_DBBXMK0dHsBA82f-45" value="id_compra" style="ellipse;whiteSpace=wrap;html=1;align=center;" vertex="1" parent="1">
          <mxGeometry x="270" y="-750" width="100" height="40" as="geometry" />
        </mxCell>
        <mxCell id="M-Kk_DBBXMK0dHsBA82f-53" value="" style="endArrow=none;html=1;rounded=0;exitX=0.5;exitY=1;exitDx=0;exitDy=0;entryX=0.5;entryY=0;entryDx=0;entryDy=0;" edge="1" parent="1" source="M-Kk_DBBXMK0dHsBA82f-19" target="M-Kk_DBBXMK0dHsBA82f-1">
          <mxGeometry relative="1" as="geometry">
            <mxPoint x="130" y="-980" as="sourcePoint" />
            <mxPoint x="290" y="-980" as="targetPoint" />
          </mxGeometry>
        </mxCell>
        <mxCell id="M-Kk_DBBXMK0dHsBA82f-59" style="edgeStyle=orthogonalEdgeStyle;rounded=0;orthogonalLoop=1;jettySize=auto;html=1;entryX=1;entryY=0.5;entryDx=0;entryDy=0;endArrow=ERmany;endFill=0;exitX=0;exitY=0.5;exitDx=0;exitDy=0;" edge="1" parent="1" source="M-Kk_DBBXMK0dHsBA82f-128" target="u0Waulj6cbrL7kYw__7z-2">
          <mxGeometry relative="1" as="geometry">
            <mxPoint x="-109.94285714285729" y="-1029.9714285714285" as="sourcePoint" />
          </mxGeometry>
        </mxCell>
        <mxCell id="M-Kk_DBBXMK0dHsBA82f-60" style="edgeStyle=orthogonalEdgeStyle;rounded=0;orthogonalLoop=1;jettySize=auto;html=1;entryX=0;entryY=0.25;entryDx=0;entryDy=0;endArrow=ERmany;endFill=0;exitX=1;exitY=0.5;exitDx=0;exitDy=0;" edge="1" parent="1" source="M-Kk_DBBXMK0dHsBA82f-128" target="M-Kk_DBBXMK0dHsBA82f-1">
          <mxGeometry relative="1" as="geometry">
            <mxPoint x="9.942857142857292" y="-1029.9714285714285" as="sourcePoint" />
          </mxGeometry>
        </mxCell>
        <mxCell id="M-Kk_DBBXMK0dHsBA82f-69" value="" style="edgeStyle=orthogonalEdgeStyle;rounded=0;orthogonalLoop=1;jettySize=auto;html=1;endArrow=none;endFill=0;" edge="1" parent="1" source="M-Kk_DBBXMK0dHsBA82f-63">
          <mxGeometry relative="1" as="geometry">
            <mxPoint x="-49.956521739130494" y="-1000.0217391304348" as="targetPoint" />
          </mxGeometry>
        </mxCell>
        <mxCell id="M-Kk_DBBXMK0dHsBA82f-63" value="id_compra" style="ellipse;whiteSpace=wrap;html=1;align=center;" vertex="1" parent="1">
          <mxGeometry x="-30" y="-930" width="100" height="40" as="geometry" />
        </mxCell>
        <mxCell id="M-Kk_DBBXMK0dHsBA82f-68" style="edgeStyle=orthogonalEdgeStyle;rounded=0;orthogonalLoop=1;jettySize=auto;html=1;entryX=0.5;entryY=1;entryDx=0;entryDy=0;endArrow=none;endFill=0;" edge="1" parent="1" source="M-Kk_DBBXMK0dHsBA82f-64" target="M-Kk_DBBXMK0dHsBA82f-128">
          <mxGeometry relative="1" as="geometry">
            <mxPoint x="-50" y="-1000" as="targetPoint" />
          </mxGeometry>
        </mxCell>
        <mxCell id="M-Kk_DBBXMK0dHsBA82f-64" value="id_produto" style="ellipse;whiteSpace=wrap;html=1;align=center;" vertex="1" parent="1">
          <mxGeometry x="-170" y="-930" width="100" height="40" as="geometry" />
        </mxCell>
        <mxCell id="M-Kk_DBBXMK0dHsBA82f-72" style="edgeStyle=orthogonalEdgeStyle;rounded=0;orthogonalLoop=1;jettySize=auto;html=1;endArrow=none;endFill=0;" edge="1" parent="1" source="M-Kk_DBBXMK0dHsBA82f-71">
          <mxGeometry relative="1" as="geometry">
            <mxPoint x="-50" y="-970" as="targetPoint" />
          </mxGeometry>
        </mxCell>
        <mxCell id="M-Kk_DBBXMK0dHsBA82f-71" value="quantidade" style="ellipse;whiteSpace=wrap;html=1;align=center;" vertex="1" parent="1">
          <mxGeometry x="-100" y="-870" width="100" height="40" as="geometry" />
        </mxCell>
        <mxCell id="M-Kk_DBBXMK0dHsBA82f-88" value="&lt;font style=&quot;font-size: 18px;&quot;&gt;endereco&lt;/font&gt;" style="whiteSpace=wrap;html=1;align=center;" vertex="1" parent="1">
          <mxGeometry x="555" y="-570" width="90" height="40" as="geometry" />
        </mxCell>
        <mxCell id="M-Kk_DBBXMK0dHsBA82f-103" value="" style="edgeStyle=orthogonalEdgeStyle;rounded=0;orthogonalLoop=1;jettySize=auto;html=1;endArrow=none;endFill=0;" edge="1" parent="1" source="M-Kk_DBBXMK0dHsBA82f-95" target="M-Kk_DBBXMK0dHsBA82f-88">
          <mxGeometry relative="1" as="geometry" />
        </mxCell>
        <mxCell id="M-Kk_DBBXMK0dHsBA82f-95" value="logradouro" style="ellipse;whiteSpace=wrap;html=1;align=center;" vertex="1" parent="1">
          <mxGeometry x="505" y="-490" width="100" height="40" as="geometry" />
        </mxCell>
        <mxCell id="M-Kk_DBBXMK0dHsBA82f-107" style="edgeStyle=orthogonalEdgeStyle;rounded=0;orthogonalLoop=1;jettySize=auto;html=1;entryX=1;entryY=0.25;entryDx=0;entryDy=0;endArrow=none;endFill=0;" edge="1" parent="1" source="M-Kk_DBBXMK0dHsBA82f-96" target="M-Kk_DBBXMK0dHsBA82f-88">
          <mxGeometry relative="1" as="geometry" />
        </mxCell>
        <mxCell id="M-Kk_DBBXMK0dHsBA82f-96" value="cep" style="ellipse;whiteSpace=wrap;html=1;align=center;" vertex="1" parent="1">
          <mxGeometry x="705" y="-600" width="100" height="40" as="geometry" />
        </mxCell>
        <mxCell id="M-Kk_DBBXMK0dHsBA82f-105" style="edgeStyle=orthogonalEdgeStyle;rounded=0;orthogonalLoop=1;jettySize=auto;html=1;entryX=0.75;entryY=1;entryDx=0;entryDy=0;endArrow=none;endFill=0;" edge="1" parent="1" source="M-Kk_DBBXMK0dHsBA82f-97" target="M-Kk_DBBXMK0dHsBA82f-88">
          <mxGeometry relative="1" as="geometry" />
        </mxCell>
        <mxCell id="M-Kk_DBBXMK0dHsBA82f-97" value="numero" style="ellipse;whiteSpace=wrap;html=1;align=center;" vertex="1" parent="1">
          <mxGeometry x="625" y="-490" width="100" height="40" as="geometry" />
        </mxCell>
        <mxCell id="M-Kk_DBBXMK0dHsBA82f-109" style="edgeStyle=orthogonalEdgeStyle;rounded=0;orthogonalLoop=1;jettySize=auto;html=1;entryX=0.861;entryY=-0.01;entryDx=0;entryDy=0;entryPerimeter=0;endArrow=none;endFill=0;" edge="1" parent="1" source="M-Kk_DBBXMK0dHsBA82f-98" target="M-Kk_DBBXMK0dHsBA82f-88">
          <mxGeometry relative="1" as="geometry" />
        </mxCell>
        <mxCell id="M-Kk_DBBXMK0dHsBA82f-98" value="cidade" style="ellipse;whiteSpace=wrap;html=1;align=center;" vertex="1" parent="1">
          <mxGeometry x="635" y="-650" width="100" height="40" as="geometry" />
        </mxCell>
        <mxCell id="M-Kk_DBBXMK0dHsBA82f-110" value="" style="edgeStyle=orthogonalEdgeStyle;rounded=0;orthogonalLoop=1;jettySize=auto;html=1;endArrow=none;endFill=0;" edge="1" parent="1" source="M-Kk_DBBXMK0dHsBA82f-99" target="M-Kk_DBBXMK0dHsBA82f-88">
          <mxGeometry relative="1" as="geometry" />
        </mxCell>
        <mxCell id="M-Kk_DBBXMK0dHsBA82f-99" value="estado" style="ellipse;whiteSpace=wrap;html=1;align=center;" vertex="1" parent="1">
          <mxGeometry x="505" y="-650" width="100" height="40" as="geometry" />
        </mxCell>
        <mxCell id="M-Kk_DBBXMK0dHsBA82f-106" style="edgeStyle=orthogonalEdgeStyle;rounded=0;orthogonalLoop=1;jettySize=auto;html=1;entryX=1;entryY=0.75;entryDx=0;entryDy=0;endArrow=none;endFill=0;" edge="1" parent="1" source="M-Kk_DBBXMK0dHsBA82f-100" target="M-Kk_DBBXMK0dHsBA82f-88">
          <mxGeometry relative="1" as="geometry" />
        </mxCell>
        <mxCell id="M-Kk_DBBXMK0dHsBA82f-100" value="bairro" style="ellipse;whiteSpace=wrap;html=1;align=center;" vertex="1" parent="1">
          <mxGeometry x="705" y="-540" width="100" height="40" as="geometry" />
        </mxCell>
        <mxCell id="M-Kk_DBBXMK0dHsBA82f-112" value="" style="edgeStyle=orthogonalEdgeStyle;rounded=0;orthogonalLoop=1;jettySize=auto;html=1;endArrow=none;endFill=0;" edge="1" parent="1" source="M-Kk_DBBXMK0dHsBA82f-111" target="M-Kk_DBBXMK0dHsBA82f-88">
          <mxGeometry relative="1" as="geometry" />
        </mxCell>
        <mxCell id="M-Kk_DBBXMK0dHsBA82f-111" value="&lt;u&gt;id&lt;/u&gt;" style="ellipse;whiteSpace=wrap;html=1;align=center;" vertex="1" parent="1">
          <mxGeometry x="410" y="-610" width="100" height="40" as="geometry" />
        </mxCell>
        <mxCell id="M-Kk_DBBXMK0dHsBA82f-115" style="edgeStyle=orthogonalEdgeStyle;rounded=0;orthogonalLoop=1;jettySize=auto;html=1;entryX=0.633;entryY=1.001;entryDx=0;entryDy=0;entryPerimeter=0;endArrow=ERmany;endFill=0;exitX=1;exitY=0.5;exitDx=0;exitDy=0;" edge="1" parent="1" source="M-Kk_DBBXMK0dHsBA82f-130" target="M-Kk_DBBXMK0dHsBA82f-88">
          <mxGeometry relative="1" as="geometry">
            <mxPoint x="539.9195402298851" y="-369.9655172413793" as="sourcePoint" />
          </mxGeometry>
        </mxCell>
        <mxCell id="M-Kk_DBBXMK0dHsBA82f-116" style="edgeStyle=orthogonalEdgeStyle;rounded=0;orthogonalLoop=1;jettySize=auto;html=1;entryX=0;entryY=0.75;entryDx=0;entryDy=0;endArrow=ERmany;endFill=0;exitX=0;exitY=0.5;exitDx=0;exitDy=0;" edge="1" parent="1" source="M-Kk_DBBXMK0dHsBA82f-130" target="u0Waulj6cbrL7kYw__7z-16">
          <mxGeometry relative="1" as="geometry">
            <mxPoint x="400.08045977011466" y="-369.9655172413793" as="sourcePoint" />
          </mxGeometry>
        </mxCell>
        <mxCell id="M-Kk_DBBXMK0dHsBA82f-135" value="" style="edgeStyle=orthogonalEdgeStyle;rounded=0;orthogonalLoop=1;jettySize=auto;html=1;endArrow=none;endFill=0;" edge="1" parent="1" source="M-Kk_DBBXMK0dHsBA82f-118" target="M-Kk_DBBXMK0dHsBA82f-130">
          <mxGeometry relative="1" as="geometry" />
        </mxCell>
        <mxCell id="M-Kk_DBBXMK0dHsBA82f-118" value="id_cliente" style="ellipse;whiteSpace=wrap;html=1;align=center;" vertex="1" parent="1">
          <mxGeometry x="360" y="-290" width="100" height="40" as="geometry" />
        </mxCell>
        <mxCell id="M-Kk_DBBXMK0dHsBA82f-136" value="" style="edgeStyle=orthogonalEdgeStyle;rounded=0;orthogonalLoop=1;jettySize=auto;html=1;endArrow=none;endFill=0;" edge="1" parent="1" source="M-Kk_DBBXMK0dHsBA82f-120" target="M-Kk_DBBXMK0dHsBA82f-130">
          <mxGeometry relative="1" as="geometry" />
        </mxCell>
        <mxCell id="M-Kk_DBBXMK0dHsBA82f-120" value="id_endereco" style="ellipse;whiteSpace=wrap;html=1;align=center;" vertex="1" parent="1">
          <mxGeometry x="480" y="-290" width="100" height="40" as="geometry" />
        </mxCell>
        <mxCell id="M-Kk_DBBXMK0dHsBA82f-124" value="" style="edgeStyle=orthogonalEdgeStyle;rounded=0;orthogonalLoop=1;jettySize=auto;html=1;entryX=1.01;entryY=0.808;entryDx=0;entryDy=0;entryPerimeter=0;endArrow=none;endFill=0;" edge="1" parent="1" source="M-Kk_DBBXMK0dHsBA82f-122" target="u0Waulj6cbrL7kYw__7z-2">
          <mxGeometry relative="1" as="geometry" />
        </mxCell>
        <mxCell id="M-Kk_DBBXMK0dHsBA82f-122" value="validade" style="ellipse;whiteSpace=wrap;html=1;" vertex="1" parent="1">
          <mxGeometry x="-295" y="-960" width="80" height="40" as="geometry" />
        </mxCell>
        <mxCell id="M-Kk_DBBXMK0dHsBA82f-127" value="" style="edgeStyle=orthogonalEdgeStyle;rounded=0;orthogonalLoop=1;jettySize=auto;html=1;endArrow=none;endFill=0;" edge="1" parent="1" source="M-Kk_DBBXMK0dHsBA82f-126" target="u0Waulj6cbrL7kYw__7z-2">
          <mxGeometry relative="1" as="geometry" />
        </mxCell>
        <mxCell id="M-Kk_DBBXMK0dHsBA82f-126" value="&lt;span style=&quot;font-weight: normal;&quot;&gt;id_fornecedor&lt;/span&gt;" style="ellipse;whiteSpace=wrap;html=1;fontStyle=1" vertex="1" parent="1">
          <mxGeometry x="-390" y="-1090" width="80" height="40" as="geometry" />
        </mxCell>
        <mxCell id="M-Kk_DBBXMK0dHsBA82f-128" value="compra_produto" style="shape=rhombus;perimeter=rhombusPerimeter;whiteSpace=wrap;html=1;align=center;" vertex="1" parent="1">
          <mxGeometry x="-110" y="-1070" width="120" height="60" as="geometry" />
        </mxCell>
        <mxCell id="M-Kk_DBBXMK0dHsBA82f-130" value="cliente_endereco" style="shape=rhombus;perimeter=rhombusPerimeter;whiteSpace=wrap;html=1;align=center;" vertex="1" parent="1">
          <mxGeometry x="410" y="-400" width="120" height="60" as="geometry" />
        </mxCell>
        <mxCell id="M-Kk_DBBXMK0dHsBA82f-139" style="edgeStyle=orthogonalEdgeStyle;rounded=0;orthogonalLoop=1;jettySize=auto;html=1;endArrow=ERmany;endFill=0;" edge="1" parent="1" source="M-Kk_DBBXMK0dHsBA82f-137">
          <mxGeometry relative="1" as="geometry">
            <mxPoint x="-390" y="-940" as="targetPoint" />
          </mxGeometry>
        </mxCell>
        <mxCell id="M-Kk_DBBXMK0dHsBA82f-143" style="edgeStyle=orthogonalEdgeStyle;rounded=0;orthogonalLoop=1;jettySize=auto;html=1;entryX=0.805;entryY=0.003;entryDx=0;entryDy=0;entryPerimeter=0;endArrow=ERmany;endFill=0;" edge="1" parent="1" source="M-Kk_DBBXMK0dHsBA82f-137" target="u0Waulj6cbrL7kYw__7z-29">
          <mxGeometry relative="1" as="geometry">
            <Array as="points">
              <mxPoint x="-323" y="-580" />
              <mxPoint x="-323" y="-580" />
            </Array>
          </mxGeometry>
        </mxCell>
        <mxCell id="M-Kk_DBBXMK0dHsBA82f-137" value="fornecedor_produto" style="shape=rhombus;perimeter=rhombusPerimeter;whiteSpace=wrap;html=1;align=center;" vertex="1" parent="1">
          <mxGeometry x="-410" y="-740" width="170" height="60" as="geometry" />
        </mxCell>
        <mxCell id="M-Kk_DBBXMK0dHsBA82f-145" value="" style="edgeStyle=orthogonalEdgeStyle;rounded=0;orthogonalLoop=1;jettySize=auto;html=1;endArrow=none;endFill=0;" edge="1" parent="1" source="M-Kk_DBBXMK0dHsBA82f-144" target="M-Kk_DBBXMK0dHsBA82f-137">
          <mxGeometry relative="1" as="geometry" />
        </mxCell>
        <mxCell id="M-Kk_DBBXMK0dHsBA82f-144" value="id_produto" style="ellipse;whiteSpace=wrap;html=1;align=center;" vertex="1" parent="1">
          <mxGeometry x="-585" y="-760" width="100" height="40" as="geometry" />
        </mxCell>
        <mxCell id="M-Kk_DBBXMK0dHsBA82f-147" value="" style="edgeStyle=orthogonalEdgeStyle;rounded=0;orthogonalLoop=1;jettySize=auto;html=1;endArrow=none;endFill=0;" edge="1" parent="1" source="M-Kk_DBBXMK0dHsBA82f-146" target="M-Kk_DBBXMK0dHsBA82f-137">
          <mxGeometry relative="1" as="geometry" />
        </mxCell>
        <mxCell id="M-Kk_DBBXMK0dHsBA82f-146" value="id_fornecedor" style="ellipse;whiteSpace=wrap;html=1;align=center;" vertex="1" parent="1">
          <mxGeometry x="-700" y="-730" width="100" height="40" as="geometry" />
        </mxCell>
        <mxCell id="M-Kk_DBBXMK0dHsBA82f-153" value="" style="edgeStyle=orthogonalEdgeStyle;rounded=0;orthogonalLoop=1;jettySize=auto;html=1;endArrow=none;endFill=0;" edge="1" parent="1" source="M-Kk_DBBXMK0dHsBA82f-148" target="M-Kk_DBBXMK0dHsBA82f-137">
          <mxGeometry relative="1" as="geometry" />
        </mxCell>
        <mxCell id="M-Kk_DBBXMK0dHsBA82f-148" value="quantidade_fornecida" style="ellipse;whiteSpace=wrap;html=1;align=center;" vertex="1" parent="1">
          <mxGeometry x="-565" y="-700" width="130" height="40" as="geometry" />
        </mxCell>
        <mxCell id="M-Kk_DBBXMK0dHsBA82f-155" value="" style="edgeStyle=orthogonalEdgeStyle;rounded=0;orthogonalLoop=1;jettySize=auto;html=1;endArrow=none;endFill=0;" edge="1" parent="1" source="M-Kk_DBBXMK0dHsBA82f-154">
          <mxGeometry relative="1" as="geometry">
            <mxPoint x="-420" y="-680" as="targetPoint" />
          </mxGeometry>
        </mxCell>
        <mxCell id="M-Kk_DBBXMK0dHsBA82f-154" value="data_fornecimento" style="ellipse;whiteSpace=wrap;html=1;align=center;" vertex="1" parent="1">
          <mxGeometry x="-460" y="-660" width="120" height="40" as="geometry" />
        </mxCell>
        <mxCell id="M-Kk_DBBXMK0dHsBA82f-157" value="" style="edgeStyle=orthogonalEdgeStyle;rounded=0;orthogonalLoop=1;jettySize=auto;html=1;endArrow=none;endFill=0;" edge="1" parent="1" source="M-Kk_DBBXMK0dHsBA82f-156">
          <mxGeometry relative="1" as="geometry">
            <mxPoint x="-570" y="-710" as="targetPoint" />
          </mxGeometry>
        </mxCell>
        <mxCell id="M-Kk_DBBXMK0dHsBA82f-156" value="numero_pedido" style="ellipse;whiteSpace=wrap;html=1;align=center;" vertex="1" parent="1">
          <mxGeometry x="-640" y="-670" width="100" height="40" as="geometry" />
        </mxCell>
      </root>
    </mxGraphModel>
  </diagram>
</mxfile>
